<svg xmlns:dc="http://purl.org/dc/elements/1.1/" xmlns:cc="http://web.resource.org/cc/" xmlns:rdf="http://www.w3.org/1999/02/22-rdf-syntax-ns#" xmlns:svg="http://www.w3.org/2000/svg" xmlns="http://www.w3.org/2000/svg" xmlns:xlink="http://www.w3.org/1999/xlink" xmlns:sodipodi="http://sodipodi.sourceforge.net/DTD/sodipodi-0.dtd" xmlns:inkscape="http://www.inkscape.org/namespaces/inkscape" width="402.56277" height="637.35779" id="svg2" sodipodi:version="0.32" inkscape:version="0.45.1" version="1.0" sodipodi:docbase="E:\Documents and Settings\Administrator\Desktop" sodipodi:docname="Adjustable_wrench_with_scale.svg" inkscape:output_extension="org.inkscape.output.svg.inkscape">
  <defs id="defs4">
    <marker inkscape:stockid="Dot_l" orient="auto" refY="0" refX="0" id="Dot_l" style="overflow:visible">
      <path id="path29078" d="M -2.5,-1 C -2.5,1.76 -4.74,4 -7.5,4 C -10.26,4 -12.5,1.76 -12.5,-1 C -12.5,-3.76 -10.26,-6 -7.5,-6 C -4.74,-6 -2.5,-3.76 -2.5,-1 z " style="fill-rule:evenodd;stroke:#000000;stroke-width:1pt;marker-start:none;marker-end:none" transform="matrix(0.8,0,0,0.8,5.92,0.8)"/>
    </marker>
    <marker inkscape:stockid="Dot_m" orient="auto" refY="0" refX="0" id="Dot_m" style="overflow:visible">
      <path id="path29081" d="M -2.5,-1 C -2.5,1.76 -4.74,4 -7.5,4 C -10.26,4 -12.5,1.76 -12.5,-1 C -12.5,-3.76 -10.26,-6 -7.5,-6 C -4.74,-6 -2.5,-3.76 -2.5,-1 z " style="fill-rule:evenodd;stroke:#000000;stroke-width:1pt;marker-start:none;marker-end:none" transform="matrix(0.4,0,0,0.4,2.96,0.4)"/>
    </marker>
    <marker inkscape:stockid="Arrow2Lstart" orient="auto" refY="0" refX="0" id="Arrow2Lstart" style="overflow:visible">
      <path id="path29034" style="font-size:12px;fill-rule:evenodd;stroke-width:0.625;stroke-linejoin:round" d="M 8.7185878,4.0337352 L -2.2072895,0.016013256 L 8.7185884,-4.0017078 C 6.97309,-1.6296469 6.9831476,1.6157441 8.7185878,4.0337352 z " transform="matrix(1.1,0,0,1.1,1.1,0)"/>
    </marker>
    <linearGradient inkscape:collect="always" id="linearGradient22604">
      <stop style="stop-color:#000000;stop-opacity:1;" offset="0" id="stop22606"/>
      <stop style="stop-color:#000000;stop-opacity:0;" offset="1" id="stop22608"/>
    </linearGradient>
    <linearGradient inkscape:collect="always" id="linearGradient18682">
      <stop style="stop-color:#000000;stop-opacity:1;" offset="0" id="stop18684"/>
      <stop style="stop-color:#000000;stop-opacity:0;" offset="1" id="stop18686"/>
    </linearGradient>
    <linearGradient inkscape:collect="always" xlink:href="#linearGradient18682" id="linearGradient23727" gradientUnits="userSpaceOnUse" x1="456.55679" y1="225.61539" x2="456.55679" y2="374.79123" gradientTransform="matrix(0.999995,3.1256622e-3,-3.1256622e-3,0.999995,20.48709,8.5941784)"/>
    <linearGradient inkscape:collect="always" xlink:href="#linearGradient22604" id="linearGradient23757" gradientUnits="userSpaceOnUse" x1="425.26727" y1="410.49139" x2="425.26727" y2="363.48779" gradientTransform="matrix(0.999995,3.1256622e-3,-3.1256622e-3,0.999995,20.48709,8.5941784)"/>
  </defs>
  <sodipodi:namedview id="base" pagecolor="#ffffff" bordercolor="#666666" borderopacity="1.0" gridtolerance="10000" guidetolerance="10" objecttolerance="10" inkscape:pageopacity="0.0" inkscape:pageshadow="2" inkscape:zoom="1.1004495" inkscape:cx="349.25564" inkscape:cy="302.53267" inkscape:document-units="px" inkscape:current-layer="layer1" showguides="true" inkscape:guide-bbox="true" inkscape:window-width="1600" inkscape:window-height="1144" inkscape:window-x="-4" inkscape:window-y="-4"/>
  <metadata id="metadata7">
    <rdf:RDF>
      <cc:Work rdf:about="">
        <dc:format>image/svg+xml</dc:format>
        <dc:type rdf:resource="http://purl.org/dc/dcmitype/StillImage"/>
      </cc:Work>
    </rdf:RDF>
  </metadata>
  <g inkscape:label="Layer 1" inkscape:groupmode="layer" id="layer1" transform="translate(-202.64447,-174.1937)">
    <path style="color:#000000;fill:#616161;fill-opacity:1;fill-rule:evenodd;stroke:#000000;stroke-width:1.99999988;stroke-linecap:butt;stroke-linejoin:miter;marker:none;marker-start:none;marker-mid:none;marker-end:none;stroke-miterlimit:4;stroke-dasharray:none;stroke-dashoffset:0;stroke-opacity:1;visibility:visible;display:inline;overflow:visible;enable-background:accumulate" d="M 455.44196,347.88242 L 457.36065,355.13363 L 459.71624,355.14099 L 461.74729,347.65467" id="path5957"/>
    <path style="color:#000000;fill:#616161;fill-opacity:1;fill-rule:evenodd;stroke:#000000;stroke-width:1.99999988;stroke-linecap:butt;stroke-linejoin:miter;marker:none;marker-start:none;marker-mid:none;marker-end:none;stroke-miterlimit:4;stroke-dasharray:none;stroke-dashoffset:0;stroke-opacity:1;visibility:visible;display:inline;overflow:visible;enable-background:accumulate" d="M 441.66599,347.83937 L 443.58468,355.09057 L 445.94028,355.09793 L 447.97133,347.61162" id="path5955"/>
    <path style="color:#000000;fill:#616161;fill-opacity:1;fill-rule:evenodd;stroke:#000000;stroke-width:1.99999988;stroke-linecap:butt;stroke-linejoin:miter;marker:none;marker-start:none;marker-mid:none;marker-end:none;stroke-miterlimit:4;stroke-dasharray:none;stroke-dashoffset:0;stroke-opacity:1;visibility:visible;display:inline;overflow:visible;enable-background:accumulate" d="M 427.89004,347.7963 L 429.80872,355.04751 L 432.16432,355.05488 L 434.19537,347.56856" id="path5953"/>
    <path style="color:#000000;fill:#616161;fill-opacity:1;fill-rule:evenodd;stroke:#000000;stroke-width:1.99999988;stroke-linecap:butt;stroke-linejoin:miter;marker:none;marker-start:none;marker-mid:none;marker-end:none;stroke-miterlimit:4;stroke-dasharray:none;stroke-dashoffset:0;stroke-opacity:1;visibility:visible;display:inline;overflow:visible;enable-background:accumulate" d="M 407.96746,384.73344 C 403.93194,380.1679 403.65652,373.44352 407.12863,368.5837" id="path7944" sodipodi:nodetypes="cs"/>
    <path style="color:#000000;fill:#616161;fill-opacity:1;fill-rule:evenodd;stroke:#000000;stroke-width:1.99999988;stroke-linecap:butt;stroke-linejoin:miter;marker:none;marker-start:none;marker-mid:none;marker-end:none;stroke-miterlimit:4;stroke-dasharray:none;stroke-dashoffset:0;stroke-opacity:1;visibility:visible;display:inline;overflow:visible;enable-background:accumulate" d="M 423.36633,347.79022 L 468.8661,347.93243 L 468.79529,347.82786 C 473.63489,345.44407 468.70151,343.8011 464.92418,342.07049 C 452.04894,342.00052 439.27083,342.09357 427.09028,343.18967 C 423.90818,343.9074 419.41661,345.74153 423.36633,347.79022 z " id="path9897" sodipodi:nodetypes="cccccc"/>
    <path style="color:#000000;fill:#616161;fill-opacity:1;fill-rule:evenodd;stroke:none;stroke-width:2;stroke-linecap:butt;stroke-linejoin:miter;marker:none;marker-start:none;marker-mid:none;marker-end:none;stroke-miterlimit:4;stroke-dashoffset:0;stroke-opacity:1;visibility:visible;display:inline;overflow:visible;enable-background:accumulate" d="M 421.10191,352.39771 L 422.10953,349.96335 L 426.36122,349.92854 L 428.96066,357.6098 L 433.96103,357.50043 L 436.04676,350.06941 L 440.50554,350.00156 L 442.9606,357.65356 L 447.64807,357.66821 L 449.7965,350.17489 L 454.1459,350.14177 L 456.46159,357.56884 L 461.90135,357.51597 L 463.9865,350.11064 L 468.09398,349.99845 L 470.64737,357.9276 L 470.4077,394.61452 L 467.93952,400.74453 L 463.20405,400.9114 L 461.647,394.96345 L 456.24992,394.85845 L 454.0193,400.83322 L 449.44919,400.89025 L 447.65605,394.69747 L 441.90405,394.79322 L 440.15731,400.85546 L 435.38893,400.86541 L 433.78047,394.71163 L 428.04126,394.79771 L 426.19991,400.78266 L 422.01379,400.5883 L 420.78334,394.33442 L 421.10191,352.39771 z " id="rect16740" sodipodi:nodetypes="ccccccccccccccccccccccccccccccccc"/>
    <path sodipodi:nodetypes="ccccccccccccccccccccccccccccccccc" id="path22613" d="M 421.10191,352.39771 L 422.10953,349.96335 L 426.36122,349.92854 L 428.96066,357.6098 L 433.96103,357.50043 L 436.04676,350.06941 L 440.50554,350.00156 L 442.9606,357.65356 L 447.64807,357.66821 L 449.7965,350.17489 L 454.1459,350.14177 L 456.46159,357.56884 L 461.90135,357.51597 L 463.9865,350.11064 L 468.09398,349.99845 L 470.64737,357.9276 L 470.4077,394.61452 L 467.93952,400.74453 L 463.20405,400.9114 L 461.647,394.96345 L 456.24992,394.85845 L 454.0193,400.83322 L 449.44919,400.89025 L 447.65605,394.69747 L 441.90405,394.79322 L 440.15731,400.85546 L 435.38893,400.86541 L 433.78047,394.71163 L 428.04126,394.79771 L 426.19991,400.78266 L 422.01379,400.5883 L 420.78334,394.33442 L 421.10191,352.39771 z " style="color:#000000;fill:url(#linearGradient23757);fill-opacity:1;fill-rule:evenodd;stroke:none;stroke-width:2;stroke-linecap:butt;stroke-linejoin:miter;marker:none;marker-start:none;marker-mid:none;marker-end:none;stroke-miterlimit:4;stroke-dashoffset:0;stroke-opacity:1;visibility:visible;display:inline;overflow:visible;enable-background:accumulate"/>
    <path style="color:#000000;fill:#616161;fill-opacity:1;fill-rule:evenodd;stroke:#000000;stroke-width:1.99999988;stroke-linecap:butt;stroke-linejoin:miter;marker:none;marker-start:none;marker-mid:none;marker-end:none;stroke-miterlimit:4;stroke-dasharray:none;stroke-dashoffset:0;stroke-opacity:1;visibility:visible;display:inline;overflow:visible;enable-background:accumulate" d="M 400.33811,347.71018 L 402.2568,354.96139 L 404.61239,354.96875 L 405.21943,352.73127 L 406.6144,347.58948 L 400.33811,347.71018 z " id="path5949" sodipodi:nodetypes="cccc"/>
    <path style="color:#000000;fill:#616161;fill-opacity:1;fill-rule:evenodd;stroke:#000000;stroke-width:1.99999988;stroke-linecap:butt;stroke-linejoin:miter;marker:none;marker-start:none;marker-mid:none;marker-end:none;stroke-miterlimit:4;stroke-dasharray:none;stroke-dashoffset:0;stroke-opacity:1;visibility:visible;display:inline;overflow:visible;enable-background:accumulate" d="M 386.56194,347.72962 L 388.48063,354.98083 L 390.83622,354.9882 L 392.86727,347.50188" id="path5945"/>
    <path id="path5131" d="M 372.78596,347.68655 L 374.70465,354.93777 L 377.06025,354.94514 L 379.0913,347.45882" style="color:#000000;fill:#616161;fill-opacity:1;fill-rule:evenodd;stroke:#000000;stroke-width:1.99999988;stroke-linecap:butt;stroke-linejoin:miter;marker:none;marker-start:none;marker-mid:none;marker-end:none;stroke-miterlimit:4;stroke-dasharray:none;stroke-dashoffset:0;stroke-opacity:1;visibility:visible;display:inline;overflow:visible;enable-background:accumulate"/>
    <path id="path4123" style="fill:#454545;fill-opacity:1;fill-rule:evenodd;stroke:#000000;stroke-width:1.99999988;stroke-linecap:butt;stroke-linejoin:miter;stroke-miterlimit:4;stroke-opacity:1" d="M 452.50127,319.86071 L 447.72269,313.98281 L 447.75558,307.98081 L 449.27021,307.08607 L 449.45865,246.79685 C 436.21007,248.54602 426.07432,254.59889 419.41711,265.8007 L 387.36772,319.61775 L 372.7132,339.39691 L 369.10079,347.6206 L 404.36643,347.73084" sodipodi:nodetypes="cccccccccc"/>
    <path style="fill:#636363;fill-opacity:1;fill-rule:evenodd;stroke:#000000;stroke-width:1.99999988;stroke-linecap:butt;stroke-linejoin:miter;stroke-miterlimit:4;stroke-dasharray:none;stroke-opacity:1" d="M 523.18182,247.01033 L 522.98246,310.79128 C 522.30566,317.3473 512.92805,320.25624 503.2973,320.01103 L 399.9228,319.68793 C 405.4138,356.85024 417.24769,399.85074 395.02988,445.392 L 260.29109,721.53468 C 257.30555,727.65344 255.06643,733.4144 255.04501,740.26838 C 254.9821,760.39622 271.24049,776.78792 291.36835,776.85084 C 306.14972,776.89704 319.27097,768.27236 324.68528,755.48612 L 452.91366,452.6667 C 472.81132,405.67716 519.18479,387.13583 553.87339,355.73179 C 576.82624,334.95228 557.25087,257.33624 523.18182,247.01033 z M 463.56036,345.76196 C 467.44904,345.76934 470.57398,348.92646 470.56961,352.81516 L 470.51577,400.03396 C 470.51139,403.92265 467.3825,407.05066 463.49382,407.0433 L 428.08755,406.99513 C 424.19888,406.98778 421.07395,403.83063 421.07831,399.94194 L 421.13215,352.72313 C 421.13651,348.83444 424.26542,345.70643 428.1541,345.7138 L 463.56036,345.76196 z M 293.01418,710.1994 C 308.51556,710.24786 321.03729,722.84812 320.98882,738.34949 C 320.94038,753.85087 308.34003,766.40383 292.83866,766.35538 C 277.33728,766.30694 264.7844,753.67534 264.83285,738.17396 C 264.8813,722.67259 277.51281,710.15096 293.01418,710.1994 z " id="path2176"/>
    <path style="fill:none;fill-rule:evenodd;stroke:#000000;stroke-width:0.99999994px;stroke-linecap:butt;stroke-linejoin:miter;stroke-opacity:1" d="M 400.07246,319.72866 L 387.52138,319.68943" id="path5121"/>
    <path style="fill:none;fill-rule:evenodd;stroke:#000000;stroke-width:0.99999994px;stroke-linecap:butt;stroke-linejoin:miter;stroke-opacity:1" d="M 373.00944,339.0012 L 402.70779,339.09403" id="path5123"/>
    <g transform="matrix(0.999995,3.1256622e-3,-3.1256622e-3,0.999995,33.399372,236.63564)" id="g6967">
      <path sodipodi:nodetypes="cccc" id="path6969" d="M 434.91915,162.9146 L 421.29992,112.08694 L 416.58393,112.08694 L 414.5253,119.76984" style="fill:none;fill-rule:evenodd;stroke:#000000;stroke-width:1px;stroke-linecap:butt;stroke-linejoin:miter;stroke-opacity:1"/>
      <path style="fill:none;fill-rule:evenodd;stroke:#000000;stroke-width:1px;stroke-linecap:butt;stroke-linejoin:miter;stroke-opacity:1" d="M 416.58229,112.08694 L 430.20152,162.9146 L 435.23001,162.9146 L 436.87087,156.79084" id="path6971" sodipodi:nodetypes="cccc"/>
    </g>
    <path style="fill:none;fill-rule:evenodd;stroke:#000000;stroke-width:0.99999994px;stroke-linecap:butt;stroke-linejoin:miter;stroke-opacity:1" d="M 447.80514,307.41846 L 427.30541,319.16871" id="path9893"/>
    <path id="path6936" style="color:#000000;fill:#616161;fill-opacity:1;fill-rule:evenodd;stroke:#000000;stroke-width:1.99999988;stroke-linecap:butt;stroke-linejoin:miter;marker:none;marker-start:none;marker-mid:none;marker-end:none;stroke-miterlimit:4;stroke-dasharray:none;stroke-dashoffset:0;stroke-opacity:1;visibility:visible;display:inline;overflow:visible;enable-background:accumulate" d="M 456.44925,357.73526 L 465.71038,357.76421 M 428.79141,357.64882 L 437.9893,357.67756 M 442.92038,357.69297 L 451.59486,357.72009 M 421.61171,357.62637 L 423.86965,357.63343 M 466.23381,394.80075 L 470.07894,394.81276 M 438.53223,394.71416 L 447.6704,394.74273 M 424.51634,394.67034 L 433.76663,394.69926 M 452.64173,394.75826 C 452.64173,394.75826 456.19522,394.76936 461.41289,394.78567"/>
    <g id="g13785" transform="matrix(0.999995,3.1256622e-3,-3.1256622e-3,0.999995,19.649441,236.59267)">
      <path style="fill:none;fill-rule:evenodd;stroke:#000000;stroke-width:1px;stroke-linecap:butt;stroke-linejoin:miter;stroke-opacity:1" d="M 434.91915,162.9146 L 421.29992,112.08694 L 416.58393,112.08694 L 414.5253,119.76984" id="path13787" sodipodi:nodetypes="cccc"/>
      <path sodipodi:nodetypes="cccc" id="path13789" d="M 416.58229,112.08694 L 430.20152,162.9146 L 435.23001,162.9146 L 436.87087,156.79084" style="fill:none;fill-rule:evenodd;stroke:#000000;stroke-width:1px;stroke-linecap:butt;stroke-linejoin:miter;stroke-opacity:1"/>
    </g>
    <g transform="matrix(0.999995,3.1256622e-3,-3.1256622e-3,0.999995,5.6495102,236.54891)" id="g13791">
      <path sodipodi:nodetypes="cccc" id="path13793" d="M 434.91915,162.9146 L 421.29992,112.08694 L 416.58393,112.08694 L 415.93638,114.50362" style="fill:none;fill-rule:evenodd;stroke:#000000;stroke-width:1px;stroke-linecap:butt;stroke-linejoin:miter;stroke-opacity:1"/>
      <path style="fill:none;fill-rule:evenodd;stroke:#000000;stroke-width:1px;stroke-linecap:butt;stroke-linejoin:miter;stroke-opacity:1" d="M 416.58229,112.08694 L 430.20152,162.9146 L 435.23001,162.9146 L 436.87087,156.79084" id="path13795" sodipodi:nodetypes="cccc"/>
    </g>
    <g id="g13797" transform="matrix(0.999995,3.1256622e-3,-3.1256622e-3,0.999995,-8.225423,236.50553)">
      <path style="fill:none;fill-rule:evenodd;stroke:#000000;stroke-width:1px;stroke-linecap:butt;stroke-linejoin:miter;stroke-opacity:1" d="M 434.91915,162.9146 L 429.75872,143.6556" id="path13799" sodipodi:nodetypes="cc"/>
      <path sodipodi:nodetypes="cccc" id="path13801" d="M 429.78317,161.35329 L 430.20152,162.9146 L 435.23001,162.9146 L 436.87087,156.79084" style="fill:none;fill-rule:evenodd;stroke:#000000;stroke-width:1px;stroke-linecap:butt;stroke-linejoin:miter;stroke-opacity:1"/>
    </g>
    <g id="g13809" transform="matrix(0.999995,3.1256622e-3,-3.1256622e-3,0.999995,47.399303,236.6794)">
      <path style="fill:none;fill-rule:evenodd;stroke:#000000;stroke-width:1px;stroke-linecap:butt;stroke-linejoin:miter;stroke-opacity:1" d="M 423.544,120.46197 L 421.29992,112.08694 L 416.58393,112.08694 L 414.5253,119.76984" id="path13811" sodipodi:nodetypes="cccc"/>
      <path sodipodi:nodetypes="cc" id="path13813" d="M 416.58229,112.08694 L 423.58743,138.2305" style="fill:none;fill-rule:evenodd;stroke:#000000;stroke-width:1px;stroke-linecap:butt;stroke-linejoin:miter;stroke-opacity:1"/>
    </g>
    <path style="fill:url(#linearGradient23727);fill-opacity:1;fill-rule:evenodd;stroke:none;stroke-width:1px;stroke-linecap:butt;stroke-linejoin:miter;stroke-opacity:1" d="M 405.41973,350.67401 C 409.37089,368.18645 408.82407,385.68482 407.50562,403.18078 L 421.00556,403.22297 C 421.10191,385.7232 420.28897,372.7574 420.82333,353.19781 L 418.4663,350.71479 L 405.41973,350.67401 z M 470.25532,403.37691 L 491.50521,403.44334 C 510.76554,388.45716 539.21605,368.95211 555.17178,353.68503 C 559.42195,349.61829 560.41611,343.84838 561.94559,340.29144 C 558.84904,345.97123 551.77791,350.93217 545.4181,351.11159 L 473.2196,350.87851 L 470.63607,353.20913 L 470.25532,403.37691 z " id="path17711" sodipodi:nodetypes="ccccccccsccccc"/>
    <path style="fill:#000000;fill-opacity:0.27631579;fill-rule:evenodd;stroke:none;stroke-width:1px;stroke-linecap:butt;stroke-linejoin:miter;stroke-opacity:1" d="M 387.32903,319.67872 L 399.92523,319.73019 L 403.05746,339.09906 L 373.047,338.98294 L 387.32903,319.67872 z " id="path19687" sodipodi:nodetypes="ccccc"/>
    <path style="color:#000000;fill:#000000;fill-opacity:0.27631579;fill-rule:evenodd;stroke:none;stroke-width:1px;stroke-linecap:butt;stroke-linejoin:miter;marker:none;marker-start:none;marker-mid:none;marker-end:none;stroke-miterlimit:4;stroke-dasharray:none;stroke-dashoffset:0;stroke-opacity:1;visibility:visible;display:inline;overflow:visible;enable-background:accumulate" d="M 447.80436,307.66847 L 426.61012,319.78977 L 452.45375,319.87055 L 447.72193,314.04323 L 447.80436,307.66847 z " id="path20658" sodipodi:nodetypes="ccccc"/>
    <path style="fill:none;fill-rule:evenodd;stroke:#000000;stroke-width:0.99999994px;stroke-linecap:butt;stroke-linejoin:miter;stroke-opacity:1" d="M 372.76233,340.99656 L 403.07467,341.09131" id="path20660"/>
    <rect style="opacity:1;color:#000000;fill:none;fill-opacity:1;fill-rule:evenodd;stroke:#000000;stroke-width:0.99999994;stroke-linecap:butt;stroke-linejoin:miter;marker:none;marker-start:none;marker-mid:none;marker-end:none;stroke-miterlimit:4;stroke-dasharray:none;stroke-dashoffset:0;stroke-opacity:1;visibility:visible;display:inline;overflow:visible;enable-background:accumulate" id="rect23799" width="54.7384" height="75.811157" x="419.12527" y="336.42258" ry="11.349976" transform="matrix(0.9999983,1.8201614e-3,-1.8201614e-3,0.9999983,0,0)" rx="13.346727"/>
    <g id="g26061" transform="matrix(-1,0,0,0.5012603,563.11043,193.04183)" style="stroke:#000000;stroke-width:1.41243458;stroke-miterlimit:4;stroke-dasharray:none;stroke-opacity:1">
      <path id="path26007" d="M 155.03237,254.8861 L 155.03237,279.36253" style="fill:none;fill-rule:evenodd;stroke:#000000;stroke-width:1.41243458;stroke-linecap:butt;stroke-linejoin:miter;stroke-miterlimit:4;stroke-dasharray:none;stroke-opacity:1"/>
      <path style="fill:none;fill-rule:evenodd;stroke:#000000;stroke-width:1.41243458;stroke-linecap:butt;stroke-linejoin:miter;stroke-miterlimit:4;stroke-dasharray:none;stroke-opacity:1" d="M 151.38242,254.84841 L 151.38242,275.63012" id="path26009"/>
      <path id="path26011" d="M 147.73246,254.84841 L 147.73246,275.63012" style="fill:none;fill-rule:evenodd;stroke:#000000;stroke-width:1.41243458;stroke-linecap:butt;stroke-linejoin:miter;stroke-miterlimit:4;stroke-dasharray:none;stroke-opacity:1"/>
      <path style="fill:none;fill-rule:evenodd;stroke:#000000;stroke-width:1.41243458;stroke-linecap:butt;stroke-linejoin:miter;stroke-miterlimit:4;stroke-dasharray:none;stroke-opacity:1" d="M 144.08249,254.84841 L 144.08249,275.63012" id="path26013"/>
      <path style="fill:none;fill-rule:evenodd;stroke:#000000;stroke-width:1.41243458;stroke-linecap:butt;stroke-linejoin:miter;stroke-miterlimit:4;stroke-dasharray:none;stroke-opacity:1" d="M 140.43253,254.84841 L 140.43253,275.63012" id="path26015"/>
      <path id="path26017" d="M 136.78257,254.93334 L 136.78257,282.83211" style="fill:none;fill-rule:evenodd;stroke:#000000;stroke-width:1.41243458;stroke-linecap:butt;stroke-linejoin:miter;stroke-miterlimit:4;stroke-dasharray:none;stroke-opacity:1"/>
      <path style="fill:none;fill-rule:evenodd;stroke:#000000;stroke-width:1.41243458;stroke-linecap:butt;stroke-linejoin:miter;stroke-miterlimit:4;stroke-dasharray:none;stroke-opacity:1" d="M 133.1326,254.84841 L 133.1326,275.63012" id="path26019"/>
      <path id="path26021" d="M 129.48264,254.84841 L 129.48264,275.63012" style="fill:none;fill-rule:evenodd;stroke:#000000;stroke-width:1.41243458;stroke-linecap:butt;stroke-linejoin:miter;stroke-miterlimit:4;stroke-dasharray:none;stroke-opacity:1"/>
      <path style="fill:none;fill-rule:evenodd;stroke:#000000;stroke-width:1.41243458;stroke-linecap:butt;stroke-linejoin:miter;stroke-miterlimit:4;stroke-dasharray:none;stroke-opacity:1" d="M 125.83268,254.84841 L 125.83268,275.63012" id="path26023"/>
      <path id="path26025" d="M 122.18272,254.84841 L 122.18272,275.63012" style="fill:none;fill-rule:evenodd;stroke:#000000;stroke-width:1.41243458;stroke-linecap:butt;stroke-linejoin:miter;stroke-miterlimit:4;stroke-dasharray:none;stroke-opacity:1"/>
      <path style="fill:none;fill-rule:evenodd;stroke:#000000;stroke-width:1.41243458;stroke-linecap:butt;stroke-linejoin:miter;stroke-miterlimit:4;stroke-dasharray:none;stroke-opacity:1" d="M 118.53276,254.8861 L 118.53276,279.36253" id="path26027"/>
      <path id="path26029" d="M 114.8828,254.84841 L 114.8828,275.63012" style="fill:none;fill-rule:evenodd;stroke:#000000;stroke-width:1.41243458;stroke-linecap:butt;stroke-linejoin:miter;stroke-miterlimit:4;stroke-dasharray:none;stroke-opacity:1"/>
      <path style="fill:none;fill-rule:evenodd;stroke:#000000;stroke-width:1.41243458;stroke-linecap:butt;stroke-linejoin:miter;stroke-miterlimit:4;stroke-dasharray:none;stroke-opacity:1" d="M 111.23283,254.84841 L 111.23283,275.63012" id="path26031"/>
      <path id="path26033" d="M 107.58287,254.84841 L 107.58287,275.63012" style="fill:none;fill-rule:evenodd;stroke:#000000;stroke-width:1.41243458;stroke-linecap:butt;stroke-linejoin:miter;stroke-miterlimit:4;stroke-dasharray:none;stroke-opacity:1"/>
      <path style="fill:none;fill-rule:evenodd;stroke:#000000;stroke-width:1.41243458;stroke-linecap:butt;stroke-linejoin:miter;stroke-miterlimit:4;stroke-dasharray:none;stroke-opacity:1" d="M 103.93291,254.84841 L 103.93291,275.63012" id="path26035"/>
      <path id="path26037" d="M 100.28295,254.92661 L 100.28295,283.37488" style="fill:none;fill-rule:evenodd;stroke:#000000;stroke-width:1.41243458;stroke-linecap:butt;stroke-linejoin:miter;stroke-miterlimit:4;stroke-dasharray:none;stroke-opacity:1"/>
      <path style="fill:none;fill-rule:evenodd;stroke:#000000;stroke-width:1.41243458;stroke-linecap:butt;stroke-linejoin:miter;stroke-miterlimit:4;stroke-dasharray:none;stroke-opacity:1" d="M 96.632986,254.84841 L 96.632986,275.63012" id="path26039"/>
      <path id="path26041" d="M 92.983024,254.84841 L 92.983024,275.63012" style="fill:none;fill-rule:evenodd;stroke:#000000;stroke-width:1.41243458;stroke-linecap:butt;stroke-linejoin:miter;stroke-miterlimit:4;stroke-dasharray:none;stroke-opacity:1"/>
      <path style="fill:none;fill-rule:evenodd;stroke:#000000;stroke-width:1.41243458;stroke-linecap:butt;stroke-linejoin:miter;stroke-miterlimit:4;stroke-dasharray:none;stroke-opacity:1" d="M 89.333062,254.84841 L 89.333062,275.63012" id="path26043"/>
      <path id="path26045" d="M 85.6831,254.84841 L 85.6831,275.63012" style="fill:none;fill-rule:evenodd;stroke:#000000;stroke-width:1.41243458;stroke-linecap:butt;stroke-linejoin:miter;stroke-miterlimit:4;stroke-dasharray:none;stroke-opacity:1"/>
      <path style="fill:none;fill-rule:evenodd;stroke:#000000;stroke-width:1.41243458;stroke-linecap:butt;stroke-linejoin:miter;stroke-miterlimit:4;stroke-dasharray:none;stroke-opacity:1" d="M 82.033137,254.8861 L 82.033137,279.36253" id="path26047"/>
      <path id="path26049" d="M 78.383175,254.84841 L 78.383175,275.63012" style="fill:none;fill-rule:evenodd;stroke:#000000;stroke-width:1.41243458;stroke-linecap:butt;stroke-linejoin:miter;stroke-miterlimit:4;stroke-dasharray:none;stroke-opacity:1"/>
      <path style="fill:none;fill-rule:evenodd;stroke:#000000;stroke-width:1.41243458;stroke-linecap:butt;stroke-linejoin:miter;stroke-miterlimit:4;stroke-dasharray:none;stroke-opacity:1" d="M 74.733214,254.59124 L 74.733214,275.63012" id="path26051" sodipodi:nodetypes="cc"/>
      <path id="path26053" d="M 71.083252,254.43521 L 71.083252,275.63012" style="fill:none;fill-rule:evenodd;stroke:#000000;stroke-width:1.41243458;stroke-linecap:butt;stroke-linejoin:miter;stroke-miterlimit:4;stroke-dasharray:none;stroke-opacity:1" sodipodi:nodetypes="cc"/>
      <path style="fill:none;fill-rule:evenodd;stroke:#000000;stroke-width:1.41243458;stroke-linecap:butt;stroke-linejoin:miter;stroke-miterlimit:4;stroke-dasharray:none;stroke-opacity:1" d="M 67.43329,254.7994 L 67.43329,275.63012" id="path26055" sodipodi:nodetypes="cc"/>
      <path id="path26057" d="M 63.783328,254.37623 L 63.783328,283.37488" style="fill:none;fill-rule:evenodd;stroke:#000000;stroke-width:1.41243458;stroke-linecap:butt;stroke-linejoin:miter;stroke-miterlimit:4;stroke-dasharray:none;stroke-opacity:1" sodipodi:nodetypes="cc"/>
    </g>
    <path sodipodi:type="star" style="opacity:1;color:#000000;fill:none;fill-opacity:1;fill-rule:evenodd;stroke:#000000;stroke-width:2.05338717;stroke-linecap:square;stroke-linejoin:miter;marker:none;marker-start:none;marker-mid:none;marker-end:none;stroke-miterlimit:4;stroke-dasharray:none;stroke-dashoffset:0;stroke-opacity:1;visibility:visible;display:inline;overflow:visible;enable-background:accumulate" id="path27067" sodipodi:sides="3" sodipodi:cx="336.40604" sodipodi:cy="236.18417" sodipodi:r1="19.584751" sodipodi:r2="15.844397" sodipodi:arg1="1.0303768" sodipodi:arg2="2.0775744" inkscape:flatsided="true" inkscape:rounded="0" inkscape:randomized="0" d="M 346.48231,252.97796 L 316.82406,236.51359 L 345.91175,219.06097 L 346.48231,252.97796 z " transform="matrix(0.208793,0.1252908,-0.1252908,0.208793,384.84838,221.91191)"/>
    <path transform="matrix(0.208793,-0.1252908,-0.1252908,-0.208793,458.74645,432.85312)" d="M 346.48231,252.97796 L 316.82406,236.51359 L 345.91175,219.06097 L 346.48231,252.97796 z " inkscape:randomized="0" inkscape:rounded="0" inkscape:flatsided="true" sodipodi:arg2="2.0775744" sodipodi:arg1="1.0303768" sodipodi:r2="15.844397" sodipodi:r1="19.584751" sodipodi:cy="236.18417" sodipodi:cx="336.40604" sodipodi:sides="3" id="path27069" style="opacity:1;color:#000000;fill:none;fill-opacity:1;fill-rule:evenodd;stroke:#000000;stroke-width:2.05338717;stroke-linecap:square;stroke-linejoin:miter;marker:none;marker-start:none;marker-mid:none;marker-end:none;stroke-miterlimit:4;stroke-dasharray:none;stroke-dashoffset:0;stroke-opacity:1;visibility:visible;display:inline;overflow:visible;enable-background:accumulate" sodipodi:type="star"/>
  </g>
</svg>
